<svg width="145" height="140" viewBox="0 0 145 140" fill="none" xmlns="http://www.w3.org/2000/svg">
<rect width="144.341" height="140" rx="4" fill="white"/>
<path fill-rule="evenodd" clip-rule="evenodd" d="M100.539 18.4345V29.9005H104.351V37.5235H108.194V41.335H112.005V37.5235H131.063V41.335H134.906V64.2355H131.063V68.047H127.251V64.2355H123.44V68.047H119.628V56.581H112.005V60.3925H104.351V56.581H100.539V64.2355H108.194V68.047H115.817V75.6385H123.44V71.8585H127.251V79.4815H131.063V87.1045H127.251V94.7275H123.44V106.194H119.628V110.005H123.44V117.628H119.628V125.251H115.817V121.44H112.005V117.628H108.194V121.44H96.759L96.7275 125.251H92.9475V132.906H89.1045V125.251H85.293V121.44H81.4815V129.094H85.293V132.906H73.8585V129.094H77.6385V125.251H62.3925V121.44H58.581V113.817H54.801V98.539H50.958V106.194H47.1465V110.005H43.335V113.817H39.492V102.382H31.9005V98.539H28.089V102.382H28.1835H9V106.194H35.586L35.712 132.906H9V133H135V7H134.906L134.874 33.712H108.194V7H104.351V10.843H100.539V7H96.7275L96.759 14.6545H92.9475V18.4345H100.539Z" fill="#FEFEFE"/>
<path fill-rule="evenodd" clip-rule="evenodd" d="M81.4815 33.712V37.5235H77.6385V41.335H81.4815V45.1465H77.6385V48.9895H73.8585V45.1465H70.047V52.801H66.2355V56.581H58.581V60.3925H62.3925V64.2355H66.2355V68.047H77.6385V71.8585H81.4815V64.2355H85.293V68.047H89.1045V60.3925H96.759V64.2355H92.9475V71.8585H96.759L96.7275 68.047H108.193V64.2355H100.539V56.581H104.35V60.3925H112.005V56.581H119.628V68.047H123.439V64.2355H127.251V60.3925H123.439V48.9895H119.628V45.1465H127.251V41.335H131.062V37.5235H112.005V41.335H108.193V37.5235H104.35V41.335H96.759V45.1465H85.293V41.335H89.1045V29.9005H85.293V33.712H81.4815Z" fill="#242322"/>
<path fill-rule="evenodd" clip-rule="evenodd" d="M96.7593 71.8581H100.539V87.1041H96.7593L96.7278 83.2926H92.9478V79.4811H89.1048V87.1041H81.4818V90.9471H85.2933V94.7271H81.4818V98.5386H73.8588V106.193H81.4818V110.005H85.2933V113.816H89.1048V110.005H92.9478V121.439H96.7593V110.005H100.539V106.193H96.7593V98.5386H119.628V87.1041H127.251V79.4811H123.44V83.2926H119.628V79.4811H115.817V75.6381H108.194V68.0466H96.7278L96.7593 71.8581Z" fill="#FEFEFE"/>
<path fill-rule="evenodd" clip-rule="evenodd" d="M134.905 7H108.193V33.712H134.874L134.905 7Z" fill="#242322"/>
<path fill-rule="evenodd" clip-rule="evenodd" d="M9 132.905H35.712L35.586 106.193H9V132.905Z" fill="#242322"/>
<path fill-rule="evenodd" clip-rule="evenodd" d="M9 33.712H35.586L35.712 7H9V33.712Z" fill="#242322"/>
<path fill-rule="evenodd" clip-rule="evenodd" d="M58.5812 29.9007V41.3352H62.3927V45.1467H54.8012V48.9897H50.9582V52.8012H54.8012V60.3927H50.9582V56.5812H47.1467V52.8012H43.3352V45.1467H47.1467V41.3352H31.9007V45.1467H39.4922V48.9897H28.0892V52.8012H39.4922V60.3927H43.3352V68.0472H47.1467V64.2357H51.0212L50.9582 68.0472H54.8012V64.2357H62.3927V60.3927H58.5812V56.5812H66.2357V52.8012H70.0472V45.1467H73.8587V41.3352H70.0472V29.9007H73.8587V26.0892H66.2357V33.7122H62.3927V29.9007H58.5812Z" fill="#FEFEFE"/>
<path fill-rule="evenodd" clip-rule="evenodd" d="M96.7593 98.5387V106.193H100.539V110.005H96.7593V121.439H108.194V117.628H112.005V121.439H115.817V125.251H119.628V117.628H123.44V110.005H119.628V106.193H123.44V94.7272H127.251V87.1042H119.628V98.5387H96.7593Z" fill="#242322"/>
<path fill-rule="evenodd" clip-rule="evenodd" d="M62.3923 79.4818H66.2353V90.9478H62.3923V94.7593H58.5808V98.5393H66.2353V94.7278H73.8583V98.5393H81.4813V94.7278H85.2928V90.9478H81.4813V87.1048H89.1043V79.4818H92.9473V83.2933H96.7273L96.7588 87.1048H100.539V71.8588H96.7588V75.6388H92.9473V71.8588H85.2928V83.2933H81.4813V79.4818H77.6383V71.8588H70.0468V75.6388H66.2353V71.8588H58.4548H58.5808V75.6388H62.3923V79.4818Z" fill="#242322"/>
<path fill-rule="evenodd" clip-rule="evenodd" d="M9 68.0467H12.8115V71.8582H13.1895H9V75.6382H12.9375H12.8115V79.4812H12.9375H9V83.2927H13.4415H12.8115L12.6855 87.1042H9V90.9472H20.4345V87.1042H24.246V79.4812H28.089V75.6382H39.492V71.8582H31.9005V68.0467H35.712V64.2352H28.089V68.0467H24.246V71.8582H16.6545V64.2352H16.4025H9V68.0467Z" fill="#FEFEFE"/>
<path fill-rule="evenodd" clip-rule="evenodd" d="M73.8588 26.089V29.9005H77.6388V33.712H81.4818V22.246H85.2933V26.089H89.1048V29.9005H92.9478V26.089H96.7593V29.9005H100.539V18.4345H92.9478V14.6545H96.7593L96.7278 7H92.9478V10.843H89.1048V14.6545H85.2933V7H73.8588V10.843H77.6388V26.089H73.8588Z" fill="#242322"/>
<path fill-rule="evenodd" clip-rule="evenodd" d="M9 33.712V41.335H16.6545L16.623 37.5235H20.4345V45.1465H16.6545V48.9895H20.4345V52.801H24.246V48.9895H28.089V45.1465H24.246V41.335H28.089V37.5235H43.335V33.712H39.492V10.843H43.335V7H35.712L35.586 33.712H9Z" fill="#FEFEFE"/>
<path fill-rule="evenodd" clip-rule="evenodd" d="M112.005 29.9004H131.062V10.8429H112.005V29.9004Z" fill="#FEFEFE"/>
<path fill-rule="evenodd" clip-rule="evenodd" d="M12.8114 129.094H31.7429H31.9004V110.005H12.8114V129.094Z" fill="#FEFEFE"/>
<path fill-rule="evenodd" clip-rule="evenodd" d="M12.8114 29.9004H31.9004V10.8429H32.6564H12.9374H12.8114V29.9004Z" fill="#FEFEFE"/>
<path fill-rule="evenodd" clip-rule="evenodd" d="M54.8012 68.0467V71.8582H50.9582V75.6382H54.8012V90.9472H58.5812V94.7587H62.3927V90.9472H66.2357V79.4812H62.3927V75.6382H58.5812V71.8582H58.4552H66.2357V75.6382H70.0472V71.8582H77.6387V68.0467H66.2357V64.2352H62.3927V68.0467H54.8012Z" fill="#FEFEFE"/>
<path fill-rule="evenodd" clip-rule="evenodd" d="M39.4918 71.8581V75.6381H47.1463V79.4811H50.9578V83.2926H47.1463V87.1041H50.9578V94.7586H47.1463V102.382H39.4918V113.816H43.3348V110.005H47.1463V106.193H50.9578V98.5386H54.8008V94.7271L58.5808 94.7586V90.9471H54.8008V75.6381H50.9578V71.8581H47.1463V68.0466H43.3348V71.8581H39.4918Z" fill="#242322"/>
<path fill-rule="evenodd" clip-rule="evenodd" d="M43.3347 10.843V14.6545H47.1462V18.4345H43.3347V22.246H50.9577V26.089H54.8007V29.9005H58.5807V18.4345H66.2352V14.6545H54.8007V10.843H50.9577V7H47.1462V10.843H43.3347Z" fill="#FEFEFE"/>
<path fill-rule="evenodd" clip-rule="evenodd" d="M9 90.9472V94.7272H16.6545V98.5387H9V102.382H28.1835H28.089V98.5387H31.9005V94.7272H35.712V90.9472H28.089V94.7587H24.246V87.1042H20.4345V90.9472H9Z" fill="#242322"/>
<path fill-rule="evenodd" clip-rule="evenodd" d="M58.581 98.5393V113.817H62.3925V117.628H66.2355V113.817H70.047V98.5393H73.8585V94.7278H66.2355V98.5393H58.581Z" fill="#FEFEFE"/>
<path fill-rule="evenodd" clip-rule="evenodd" d="M70.0466 113.817H81.4811V121.44H85.2926V117.628H89.1041V121.44H92.9471V110.005H89.1041V113.817H85.2926V110.005H81.4811V106.194H73.8581V98.5392H70.0466V113.817Z" fill="#242322"/>
<path fill-rule="evenodd" clip-rule="evenodd" d="M81.4815 121.439H77.6385V117.628H70.047V121.439H66.2355V117.628H62.3925V113.816H58.581V121.439H62.3925V125.251H77.6385V129.094H73.8585V132.905H85.293V129.094H81.4815V121.439Z" fill="#242322"/>
<path fill-rule="evenodd" clip-rule="evenodd" d="M43.3348 33.7119V29.9004H47.1463V33.7119H50.9578V29.9004H54.8008V26.0889H50.9578V22.2459H43.3348V18.4344H47.1463V14.6544H43.3348V10.8429H39.4918V33.7119H43.3348Z" fill="#242322"/>
<path fill-rule="evenodd" clip-rule="evenodd" d="M77.6386 71.8583V79.4813H81.4816V83.2928H85.2931V71.8583H92.9476V64.2353H96.7591V60.3923H89.1046V68.0468H85.2931V64.2353H81.4816V71.8583H77.6386Z" fill="#FEFEFE"/>
<path fill-rule="evenodd" clip-rule="evenodd" d="M28.0893 48.9894H39.4923V45.1464H31.9008V41.3349H47.1468V33.7119H43.3353V37.5234H28.0893V41.3349H24.2463V45.1464H28.0893V48.9894Z" fill="#242322"/>
<path fill-rule="evenodd" clip-rule="evenodd" d="M9 64.2356H16.4025H16.6545V71.8586H24.246V68.0471H28.089V64.2356H20.4345L20.34 60.3926H12.8115V56.5811H16.6545V52.8011H9V64.2356Z" fill="#242322"/>
<path fill-rule="evenodd" clip-rule="evenodd" d="M58.581 29.9001H62.3925V33.7116H66.2355V26.0886H73.8585V18.4341H70.047V22.2456H66.2355V18.4341H58.581V29.9001Z" fill="#242322"/>
<path fill-rule="evenodd" clip-rule="evenodd" d="M28.0889 64.2356V60.3926H35.7119V56.5811H28.0889V52.8011H24.2459L24.2144 56.5811H20.4344V52.8011H16.6544V56.5811H12.8114V60.3926H20.3399L20.4344 64.2356H28.0889Z" fill="#FEFEFE"/>
<path fill-rule="evenodd" clip-rule="evenodd" d="M104.351 113.817H115.817V102.382H104.351V113.817Z" fill="#FEFEFE"/>
<path fill-rule="evenodd" clip-rule="evenodd" d="M119.628 45.1462V48.9892H123.44V60.3922H127.251V64.2352H131.063V56.5807H127.251V48.9892H131.063V41.3347H127.251V45.1462H119.628Z" fill="#FEFEFE"/>
<path fill-rule="evenodd" clip-rule="evenodd" d="M54.8007 45.1462H50.9577V41.3347H47.1462V45.1462H43.3347V52.8007H47.1462V56.5807H50.9577V60.3922H54.8007V52.8007H50.9577V48.9892H54.8007V45.1462Z" fill="#242322"/>
<path fill-rule="evenodd" clip-rule="evenodd" d="M104.35 37.5235H92.9474V29.9005H89.1044V41.335H85.2929V45.1465H96.7589V41.335H104.35V37.5235Z" fill="#FEFEFE"/>
<path fill-rule="evenodd" clip-rule="evenodd" d="M115.816 26.0888H127.251V14.6543H115.816V26.0888Z" fill="#242322"/>
<path fill-rule="evenodd" clip-rule="evenodd" d="M70.0468 18.4345H73.8583V26.089H77.6383V10.843H73.8583V7H62.3923V10.843H70.0468V18.4345Z" fill="#FEFEFE"/>
<path fill-rule="evenodd" clip-rule="evenodd" d="M16.6543 26.0888H28.0888V14.6543H16.7488L16.6543 26.0888Z" fill="#242322"/>
<path fill-rule="evenodd" clip-rule="evenodd" d="M16.6543 125.251H27.9943L28.0888 113.816H16.6858L16.6543 125.251Z" fill="#242322"/>
<path fill-rule="evenodd" clip-rule="evenodd" d="M35.7119 83.2932V87.1047H47.1464V83.2932H50.9579V79.4817H47.1464V75.6387H39.4919V83.2932H35.7119Z" fill="#FEFEFE"/>
<path fill-rule="evenodd" clip-rule="evenodd" d="M131.063 64.2352H134.906V41.3347H131.063V48.9892H127.251V56.5807H131.063V64.2352Z" fill="#242322"/>
<path fill-rule="evenodd" clip-rule="evenodd" d="M31.9006 98.5386H39.4921V102.382H47.1466V94.7586L43.3351 94.7271V90.9471H35.7121V94.7271H31.9006V98.5386Z" fill="#FEFEFE"/>
<path fill-rule="evenodd" clip-rule="evenodd" d="M24.2463 87.1047H28.0893V83.2932H31.9008V79.4817H35.7123V83.2932H39.4923V75.6387H28.0893V79.4817H24.2463V87.1047Z" fill="#242322"/>
<path fill-rule="evenodd" clip-rule="evenodd" d="M54.8011 10.843V14.6545H66.2356V18.4345H70.0471V10.843H62.3926V7H58.5811V10.843H54.8011Z" fill="#242322"/>
<path fill-rule="evenodd" clip-rule="evenodd" d="M50.9578 121.439V117.628H54.8008V113.816H47.1463V117.628H43.3348V121.439H39.4918V125.251H47.1463V121.439H50.9578Z" fill="#242322"/>
<path fill-rule="evenodd" clip-rule="evenodd" d="M89.1046 60.3926V52.8011H77.6386V60.3926H89.1046Z" fill="#FEFEFE"/>
<path fill-rule="evenodd" clip-rule="evenodd" d="M50.9582 41.335H54.8012V45.1465H62.3927V41.335H58.5812V29.9005H54.8012V37.5235H50.9582V41.335Z" fill="#242322"/>
<path fill-rule="evenodd" clip-rule="evenodd" d="M24.2463 87.1045V94.759H28.0893V90.9475H35.7123V87.1045H31.9008V83.293H28.0893V87.1045H24.2463Z" fill="#FEFEFE"/>
<path fill-rule="evenodd" clip-rule="evenodd" d="M100.539 132.906H112.005V129.094H108.162L108.194 125.251H100.539V132.906Z" fill="#242322"/>
<path fill-rule="evenodd" clip-rule="evenodd" d="M35.7121 64.2353V68.0468H31.9006V71.8583H39.4921V68.0468H43.3351V60.3923H39.4921V64.2353H35.7121Z" fill="#242322"/>
<path fill-rule="evenodd" clip-rule="evenodd" d="M115.816 75.6388V79.4818H119.628V83.2933H123.439V79.4818H127.251V71.8588H123.439V75.6388H115.816Z" fill="#242322"/>
<path fill-rule="evenodd" clip-rule="evenodd" d="M9 41.3348V45.1463H12.9375L12.8115 48.9893H16.6545V45.1463H20.4345V37.5233H16.623L16.6545 41.3348H9Z" fill="#242322"/>
<path fill-rule="evenodd" clip-rule="evenodd" d="M104.35 37.5235V29.9005H100.539V33.712H96.7272L96.7587 29.9005H92.9472V37.5235H104.35Z" fill="#242322"/>
<path fill-rule="evenodd" clip-rule="evenodd" d="M81.4815 33.7123H85.293V29.9008H89.1045V26.0893H85.293V22.2463H81.4815V33.7123Z" fill="#FEFEFE"/>
<path fill-rule="evenodd" clip-rule="evenodd" d="M123.44 125.251H134.906V121.44H131.063V117.628H127.251V121.44H123.44V125.251Z" fill="#242322"/>
<path fill-rule="evenodd" clip-rule="evenodd" d="M131.063 110.005H127.251V113.817H134.906V102.382H131.063V110.005Z" fill="#242322"/>
<path fill-rule="evenodd" clip-rule="evenodd" d="M54.8011 129.094V132.905H70.0471V129.094H54.8011Z" fill="#242322"/>
<path fill-rule="evenodd" clip-rule="evenodd" d="M104.351 56.5814H108.194V48.9899H112.005V45.1469H104.351V56.5814Z" fill="#FEFEFE"/>
<path fill-rule="evenodd" clip-rule="evenodd" d="M35.7119 90.9472H43.3349V94.7272L47.1464 94.7587V87.1042H35.7119V90.9472Z" fill="#242322"/>
<path fill-rule="evenodd" clip-rule="evenodd" d="M47.1468 33.712V41.335H50.9583V37.5235H54.8013V29.9005H50.9583V33.712H47.1468Z" fill="#FEFEFE"/>
<path fill-rule="evenodd" clip-rule="evenodd" d="M115.816 75.6381V68.0466H108.193V75.6381H115.816Z" fill="#242322"/>
<path fill-rule="evenodd" clip-rule="evenodd" d="M73.8581 41.335V37.5235H77.6381V33.712H73.8581V29.9005H70.0466V41.335H73.8581Z" fill="#242322"/>
<path fill-rule="evenodd" clip-rule="evenodd" d="M70.0466 117.628H77.6381V121.439H81.4811V113.816H70.0466V117.628Z" fill="#FEFEFE"/>
<path fill-rule="evenodd" clip-rule="evenodd" d="M96.7588 98.5386L96.7273 94.7271H100.539V90.9471H89.1043V94.7271H92.8843L92.9473 98.5386H96.7588Z" fill="#242322"/>
<path fill-rule="evenodd" clip-rule="evenodd" d="M54.8011 113.817H58.5811V98.5392H54.8011V113.817Z" fill="#242322"/>
<path fill-rule="evenodd" clip-rule="evenodd" d="M35.7122 60.3926H39.4922V52.8011H28.0892V56.5811H35.7122V60.3926Z" fill="#242322"/>
<path fill-rule="evenodd" clip-rule="evenodd" d="M9 52.8013H16.6545V48.9899H12.8115L12.9375 45.1469H9V52.8013Z" fill="#FEFEFE"/>
<path fill-rule="evenodd" clip-rule="evenodd" d="M92.9474 7H85.2929V14.6545H89.1044V10.843H92.9474V7Z" fill="#FEFEFE"/>
<path fill-rule="evenodd" clip-rule="evenodd" d="M131.062 87.1042V98.5387H134.906V87.1042H131.062Z" fill="#242322"/>
<path fill-rule="evenodd" clip-rule="evenodd" d="M50.9577 129.094H43.3347V132.905H50.9577V129.094Z" fill="#242322"/>
<path fill-rule="evenodd" clip-rule="evenodd" d="M9 98.5393H16.6545V94.7278H9V98.5393Z" fill="#FEFEFE"/>
<path fill-rule="evenodd" clip-rule="evenodd" d="M50.9582 129.094H54.8012V121.44H50.9582V129.094Z" fill="#242322"/>
<path fill-rule="evenodd" clip-rule="evenodd" d="M47.1468 94.7587H50.9583V87.1042H47.1468V94.7587Z" fill="#FEFEFE"/>
<path fill-rule="evenodd" clip-rule="evenodd" d="M85.2929 102.382V106.194H92.9474V102.382H85.2929Z" fill="#242322"/>
<path fill-rule="evenodd" clip-rule="evenodd" d="M62.3925 79.4816H58.581V87.1046H62.3925V79.4816Z" fill="#242322"/>
<path fill-rule="evenodd" clip-rule="evenodd" d="M73.8581 83.2932V75.6387H70.0466V83.2932H73.8581Z" fill="#FEFEFE"/>
<path fill-rule="evenodd" clip-rule="evenodd" d="M28.0892 64.2353H35.7122V60.3923H28.0892V64.2353Z" fill="#242322"/>
<path fill-rule="evenodd" clip-rule="evenodd" d="M92.9473 125.251H89.1043V132.906H92.9473V125.251Z" fill="#242322"/>
<path fill-rule="evenodd" clip-rule="evenodd" d="M127.251 87.1046H131.063V79.4816H127.251V87.1046Z" fill="#242322"/>
<path fill-rule="evenodd" clip-rule="evenodd" d="M39.4921 102.382V98.5392H31.9006V102.382H39.4921Z" fill="#242322"/>
<path fill-rule="evenodd" clip-rule="evenodd" d="M54.8011 68.0467H62.3926V64.2352H54.8011V68.0467Z" fill="#242322"/>
<path fill-rule="evenodd" clip-rule="evenodd" d="M131.062 79.4818H134.906V71.8588H131.062V79.4818Z" fill="#242322"/>
<path fill-rule="evenodd" clip-rule="evenodd" d="M104.351 94.7271H112.005V90.9471H104.351V94.7271Z" fill="#242322"/>
<path fill-rule="evenodd" clip-rule="evenodd" d="M47.1468 68.0467H50.9583L51.0213 64.2352H47.1468V68.0467Z" fill="#242322"/>
<path fill-rule="evenodd" clip-rule="evenodd" d="M131.062 132.905H134.905V129.094H131.031L131.062 132.905Z" fill="#242322"/>
<path fill-rule="evenodd" clip-rule="evenodd" d="M54.8012 10.843V7H50.9582V10.843H54.8012Z" fill="#242322"/>
<path fill-rule="evenodd" clip-rule="evenodd" d="M70.0468 117.628H66.2353V121.44H70.0468V117.628Z" fill="#FEFEFE"/>
<path fill-rule="evenodd" clip-rule="evenodd" d="M104.351 7H100.539V10.843H104.351V7Z" fill="#242322"/>
<path fill-rule="evenodd" clip-rule="evenodd" d="M85.2929 121.44H89.1044V117.628H85.2929V121.44Z" fill="#FEFEFE"/>
<path fill-rule="evenodd" clip-rule="evenodd" d="M70.0468 18.4341H66.2353V22.2456H70.0468V18.4341Z" fill="#FEFEFE"/>
<path fill-rule="evenodd" clip-rule="evenodd" d="M85.2929 22.2456H89.1044V18.4341H85.2929V22.2456Z" fill="#FEFEFE"/>
<path fill-rule="evenodd" clip-rule="evenodd" d="M43.3347 33.712H47.1462V29.9005H43.3347V33.712Z" fill="#FEFEFE"/>
<path fill-rule="evenodd" clip-rule="evenodd" d="M112.005 83.293V87.1045H115.816V83.293H112.005Z" fill="#242322"/>
<path fill-rule="evenodd" clip-rule="evenodd" d="M66.2353 56.5809V60.3924H70.0468V56.5809H66.2353Z" fill="#FEFEFE"/>
<path fill-rule="evenodd" clip-rule="evenodd" d="M50.9583 71.8581V68.0466H47.1468V71.8581H50.9583Z" fill="#FEFEFE"/>
<path fill-rule="evenodd" clip-rule="evenodd" d="M35.7121 87.1045V83.293H31.9006V87.1045H35.7121Z" fill="#242322"/>
<path fill-rule="evenodd" clip-rule="evenodd" d="M43.3347 10.843H47.1462V7H43.3347V10.843Z" fill="#242322"/>
<path fill-rule="evenodd" clip-rule="evenodd" d="M89.1044 125.251V121.44H85.2929V125.251H89.1044Z" fill="#242322"/>
<path fill-rule="evenodd" clip-rule="evenodd" d="M89.1043 125.251H92.9473V121.44H89.1043V125.251Z" fill="#FEFEFE"/>
<path fill-rule="evenodd" clip-rule="evenodd" d="M54.8012 45.1462V41.3347H50.9582V45.1462H54.8012Z" fill="#FEFEFE"/>
<path fill-rule="evenodd" clip-rule="evenodd" d="M112.005 83.2931V79.4816H108.193V83.2931H112.005Z" fill="#242322"/>
<path fill-rule="evenodd" clip-rule="evenodd" d="M50.9582 71.8581H54.8012V68.0466H50.9582V71.8581Z" fill="#242322"/>
<path fill-rule="evenodd" clip-rule="evenodd" d="M9 71.8581H13.1895H12.8115V68.0466H9V71.8581Z" fill="#242322"/>
<path fill-rule="evenodd" clip-rule="evenodd" d="M31.9006 83.2931H35.7121V79.4816H31.9006V83.2931Z" fill="#FEFEFE"/>
<path fill-rule="evenodd" clip-rule="evenodd" d="M131.063 64.2352H127.251V68.0467H131.063V64.2352Z" fill="#242322"/>
<path fill-rule="evenodd" clip-rule="evenodd" d="M85.293 102.382V98.5392H81.4815V102.382H85.293Z" fill="#242322"/>
<path fill-rule="evenodd" clip-rule="evenodd" d="M9 79.4817H12.9375H12.8115V75.6387H12.9375H9V79.4817Z" fill="#242322"/>
<path fill-rule="evenodd" clip-rule="evenodd" d="M92.9472 29.9007H96.7587V26.0892H92.9472V29.9007Z" fill="#FEFEFE"/>
<path fill-rule="evenodd" clip-rule="evenodd" d="M77.6386 45.1462H81.4816V41.3347H77.6386V45.1462Z" fill="#FEFEFE"/>
<path fill-rule="evenodd" clip-rule="evenodd" d="M119.628 129.094H123.44V125.251H119.628V129.094Z" fill="#242322"/>
<path fill-rule="evenodd" clip-rule="evenodd" d="M89.1043 52.8012H92.9473V48.9897H89.1043V52.8012Z" fill="#FEFEFE"/>
<path fill-rule="evenodd" clip-rule="evenodd" d="M39.4918 71.8581H43.3348V68.0466H39.4918V71.8581Z" fill="#FEFEFE"/>
<path fill-rule="evenodd" clip-rule="evenodd" d="M112.005 60.3923V64.2353H115.816V60.3923H112.005Z" fill="#242322"/>
<path fill-rule="evenodd" clip-rule="evenodd" d="M58.581 52.8012H62.3925V48.9897H58.581V52.8012Z" fill="#242322"/>
<path fill-rule="evenodd" clip-rule="evenodd" d="M24.2463 52.8012H28.0893V48.9897H24.2463V52.8012Z" fill="#242322"/>
<path fill-rule="evenodd" clip-rule="evenodd" d="M24.2456 94.7593L20.4341 94.7278V98.5393H24.2456V94.7593Z" fill="#FEFEFE"/>
<path fill-rule="evenodd" clip-rule="evenodd" d="M62.3923 110.005H66.2353V106.193H62.4238L62.3923 110.005Z" fill="#242322"/>
<path fill-rule="evenodd" clip-rule="evenodd" d="M108.193 110.005H111.973L112.005 106.193H108.193V110.005Z" fill="#242322"/>
<path fill-rule="evenodd" clip-rule="evenodd" d="M92.9472 125.251H96.7272L96.7587 121.44H92.9472V125.251Z" fill="#242322"/>
<path fill-rule="evenodd" clip-rule="evenodd" d="M100.539 29.9005H96.7593L96.7278 33.712H100.539V29.9005Z" fill="#FEFEFE"/>
<path fill-rule="evenodd" clip-rule="evenodd" d="M54.8011 10.843H58.5811V7H54.8011V10.843Z" fill="#FEFEFE"/>
<path fill-rule="evenodd" clip-rule="evenodd" d="M100.539 18.4343H104.351V14.6543H100.539V18.4343Z" fill="#242322"/>
<path fill-rule="evenodd" clip-rule="evenodd" d="M73.8588 83.293V87.1045H77.6388V83.293H73.8588Z" fill="#FEFEFE"/>
<path fill-rule="evenodd" clip-rule="evenodd" d="M20.4343 87.1045V83.293H16.6543V87.1045H20.4343Z" fill="#242322"/>
<path fill-rule="evenodd" clip-rule="evenodd" d="M96.7587 71.8588H92.9472V75.6388H96.7587V71.8588Z" fill="#FEFEFE"/>
<path fill-rule="evenodd" clip-rule="evenodd" d="M66.2353 117.628H70.0468V113.816H66.2353V117.628Z" fill="#242322"/>
<path fill-rule="evenodd" clip-rule="evenodd" d="M119.628 45.1462V41.3347H115.816V45.1462H119.628Z" fill="#FEFEFE"/>
<path fill-rule="evenodd" clip-rule="evenodd" d="M77.6388 45.1469H73.8588V48.9899H77.6388V45.1469Z" fill="#FEFEFE"/>
<path fill-rule="evenodd" clip-rule="evenodd" d="M73.8588 45.1462H77.6388V41.3347H73.8588V45.1462Z" fill="#242322"/>
<path fill-rule="evenodd" clip-rule="evenodd" d="M16.6543 52.8012H20.4343V48.9897H16.6543V52.8012Z" fill="#242322"/>
<path fill-rule="evenodd" clip-rule="evenodd" d="M77.6386 37.5234H81.4816V33.7119H77.6386V37.5234Z" fill="#FEFEFE"/>
<path fill-rule="evenodd" clip-rule="evenodd" d="M73.8588 41.3348H77.6388V37.5233H73.8588V41.3348Z" fill="#FEFEFE"/>
<path fill-rule="evenodd" clip-rule="evenodd" d="M119.628 48.9897H115.816V52.8012H119.628V48.9897Z" fill="#FEFEFE"/>
<path fill-rule="evenodd" clip-rule="evenodd" d="M77.6388 33.712V29.9005H73.8588V33.712H77.6388Z" fill="#FEFEFE"/>
<path fill-rule="evenodd" clip-rule="evenodd" d="M119.628 129.094H115.816V132.905H119.628V129.094Z" fill="#242322"/>
<path fill-rule="evenodd" clip-rule="evenodd" d="M35.7119 64.2353H39.4919V60.3923H35.7119V64.2353Z" fill="#FEFEFE"/>
<path fill-rule="evenodd" clip-rule="evenodd" d="M54.8011 98.5393H58.5811V94.7593L54.8011 94.7278V98.5393Z" fill="#FEFEFE"/>
<path fill-rule="evenodd" clip-rule="evenodd" d="M24.2456 52.8011H20.4341V56.5811H24.2141L24.2456 52.8011Z" fill="#242322"/>
<path fill-rule="evenodd" clip-rule="evenodd" d="M9 87.1045H12.6855L12.8115 83.293H13.4415H9V87.1045Z" fill="#242322"/>
</svg>
