<svg width="527" height="423" viewBox="0 0 527 423" fill="none" xmlns="http://www.w3.org/2000/svg">
<path d="M254.209 405.842C261.366 407.932 268.862 403.825 270.952 396.668L305.018 280.042C307.108 272.885 303.001 265.389 295.844 263.298C288.688 261.208 281.191 265.315 279.101 272.472L248.82 376.14L145.152 345.859C137.995 343.769 130.499 347.876 128.409 355.033C126.318 362.189 130.425 369.686 137.582 371.776L254.209 405.842ZM629.141 200.425C636.298 202.515 643.794 198.408 645.884 191.251L679.95 74.6244C682.04 67.4676 677.933 59.9713 670.777 57.8809C663.62 55.7904 656.123 59.8975 654.033 67.0543L623.752 170.722L520.084 140.442C512.927 138.351 505.431 142.459 503.341 149.615C501.25 156.772 505.357 164.269 512.514 166.359L629.141 200.425ZM269.833 386.397C216.691 289.401 252.242 167.69 349.238 114.548L336.265 90.8691C226.191 151.176 185.847 289.297 246.154 399.37L269.833 386.397ZM349.238 114.548C446.234 61.4062 567.944 96.9568 621.086 193.953L644.765 180.979C584.459 70.906 446.338 30.5623 336.265 90.8691L349.238 114.548Z" fill="#FFDC56"/>
<path d="M34.0414 448.863C36.1318 441.707 43.6282 437.6 50.7849 439.69L167.412 473.756C174.568 475.846 178.676 483.342 176.585 490.499C174.495 497.656 166.998 501.763 159.841 499.673L56.1733 469.392L25.8928 573.06C23.8024 580.217 16.306 584.324 9.1492 582.234C1.9924 580.143 -2.11469 572.647 -0.0242554 565.49L34.0414 448.863ZM408.973 243.446C411.064 236.289 418.56 232.182 425.717 234.273L542.344 268.338C549.501 270.429 553.608 277.925 551.517 285.082C549.427 292.239 541.93 296.346 534.774 294.255L431.105 263.975L400.825 367.643C398.734 374.8 391.238 378.907 384.081 376.816C376.925 374.726 372.817 367.23 374.908 360.073L408.973 243.446ZM58.8394 446.162C111.981 543.158 233.692 578.708 330.688 525.566L343.661 549.245C233.588 609.552 95.4672 569.208 35.1604 459.135L58.8394 446.162ZM330.688 525.566C427.684 472.424 463.234 350.714 410.092 253.718L433.772 240.745C494.078 350.818 453.735 488.939 343.661 549.245L330.688 525.566Z" fill="#FFDC56"/>
</svg>
