<svg width="150" height="150" fill="none" xmlns="http://www.w3.org/2000/svg"><rect width="150" height="150" rx="38" fill="#fff"/><path fill-rule="evenodd" clip-rule="evenodd" d="M102.272 56.182c-1.961-.777-5.071-1.636-8.917-1.636-9.818 0-16.731 5.233-16.774 12.716-.081 5.52 4.95 8.587 8.713 10.427 3.847 1.882 5.154 3.11 5.154 4.786-.039 2.575-3.108 3.762-5.97 3.762-3.97 0-6.096-.612-9.328-2.045l-1.31-.614-1.39 8.628c2.331 1.062 6.627 2.004 11.087 2.046 10.432 0 17.223-5.153 17.304-13.127.039-4.375-2.617-7.728-8.345-10.467-3.477-1.76-5.607-2.945-5.607-4.744.04-1.636 1.801-3.312 5.726-3.312 3.232-.082 5.607.695 7.406 1.472l.899.408 1.352-8.3ZM66.231 93.676h-9.942l6.218-38.436h9.941l-6.217 38.436Zm53.224-24.37s-3.15 8.546-3.969 10.754h8.264c-.409-1.922-2.292-11.122-2.292-11.122l-.695-3.312c-.292.852-.714 2.022-1 2.813l-.001.003v.001c-.193.536-.323.896-.307.862Zm.613-14.066h7.69l8.021 38.436h-9.206s-.9-4.416-1.186-5.766h-12.764l-2.087 5.766h-10.431l14.767-35.247c1.023-2.494 2.825-3.189 5.196-3.189Zm-72.082 0L38.25 81.45l-1.064-5.316v.002L33.71 58.47c-.573-2.455-2.332-3.15-4.5-3.231H13.214l-.164.777c3.901.997 7.39 2.434 10.447 4.22l8.861 33.398h10.514L58.498 55.24H47.986Z" fill="url(#a)"/><defs><linearGradient id="a" x1="135.078" y1="91.339" x2="54.012" y2="12.452" gradientUnits="userSpaceOnUse"><stop stop-color="#292F79"/><stop offset="1" stop-color="#087AD8"/></linearGradient></defs></svg>